<svg xmlns="http://www.w3.org/2000/svg" width="48" height="48" viewBox="0 0 48 48" fill="none">
    <g id="Frame 3224">
        <path d="M0 8C0 3.58172 3.58172 0 8 0H40C44.4183 0 48 3.58172 48 8V40C48 44.4183 44.4183 48 40 48H8C3.58172 48 0 44.4183 0 40V8Z" fill="#00D890" />
        <path
            id="Vector"
            d="M19.2991 24.0001H14.6004L19.2991 17.4639H23.9978L19.2991 24.0001ZM33.3953 24.0001H28.6966L23.9978 30.5364H28.6966L33.3953 24.0001ZM38.094 30.5364H42.7928L38.094 24.0001H33.3953L38.094 30.5364ZM14.6004 24.0001H9.90162L5.20288 30.5364H9.90162L14.6004 24.0001ZM21.6498 27.2682H16.9511L19.3018 30.5364H24.0005L21.6498 27.2682ZM35.746 20.732H40.4568L42.7995 17.4639H38.1008L35.746 20.732ZM9.89893 17.4639H5.2002L8.72559 22.3661H13.4243L9.89893 17.4639ZM28.6939 17.4639H23.9951L27.5192 22.3661H32.2179L28.6939 17.4639Z"
            fill="#121212"
        />
    </g>
</svg>